<?xml version="1.0" encoding="UTF-8" standalone="no"?>
<!-- Created with Inkscape (http://www.inkscape.org/) -->

<svg
   xmlns:dc="http://purl.org/dc/elements/1.1/"
   xmlns:cc="http://creativecommons.org/ns#"
   xmlns:rdf="http://www.w3.org/1999/02/22-rdf-syntax-ns#"
   xmlns:svg="http://www.w3.org/2000/svg"
   xmlns="http://www.w3.org/2000/svg"
   xmlns:sodipodi="http://sodipodi.sourceforge.net/DTD/sodipodi-0.dtd"
   xmlns:inkscape="http://www.inkscape.org/namespaces/inkscape"
   width="210mm"
   height="297mm"
   id="svg2"
   version="1.1"
   inkscape:version="0.48.2 r9819"
   sodipodi:docname="Documento nuevo 1">
  <defs
     id="defs4">
 <style
   id="style3005"
   type="text/css">
   
    .fil0 {fill:white}
   
  </style>

  
  
  
  
 </defs>
  <sodipodi:namedview
     id="base"
     pagecolor="#ffffff"
     bordercolor="#666666"
     borderopacity="1.0"
     inkscape:pageopacity="0.0"
     inkscape:pageshadow="2"
     inkscape:zoom="0.35"
     inkscape:cx="350"
     inkscape:cy="520"
     inkscape:document-units="px"
     inkscape:current-layer="layer1"
     showgrid="false"
     inkscape:window-width="1281"
     inkscape:window-height="916"
     inkscape:window-x="66"
     inkscape:window-y="66"
     inkscape:window-maximized="0" />
  <metadata
     id="metadata7">
    <rdf:RDF>
      <cc:Work
         rdf:about="">
        <dc:format>image/svg+xml</dc:format>
        <dc:type
           rdf:resource="http://purl.org/dc/dcmitype/StillImage" />
        <dc:title></dc:title>
      </cc:Work>
    </rdf:RDF>
  </metadata>
  <g
     inkscape:label="Capa 1"
     inkscape:groupmode="layer"
     id="layer1">
    <g
       id="g3030">
      <path
         style="fill:#000000;fill-rule:evenodd"
         inkscape:connector-curvature="0"
         class="fil0"
         d="m 532.52306,517.12096 0,0 c 0.0679,1.2052 0.41733,2.33587 1.26257,3.2453 0.83607,0.89061 1.81603,1.3465 3.04004,1.3465 2.29449,0 3.77854,-1.32511 4.83467,-3.28127 l 0.38395,-0.71193 9.01714,1.50803 -0.66138,1.36132 c -1.29854,2.67585 -3.12116,4.98398 -5.67451,6.55055 -2.42404,1.50521 -5.10529,2.19739 -7.95465,2.19739 -3.80393,0 -7.21851,-1.15606 -9.91294,-3.8827 -2.74003,-2.76918 -3.82932,-6.3199 -3.82932,-10.17179 0,-3.94923 1.0813,-7.58788 3.3732,-10.81178 3.21591,-4.4813 7.77456,-6.49318 13.2464,-6.49318 3.41458,0 6.54138,0.99995 8.92662,3.50252 2.49457,2.6173 3.32265,6.08525 3.32265,9.61457 0,1.72386 -0.14413,3.47853 -0.54805,5.15843 l -0.20926,0.86804 -18.61713,0 z m -16.84507,-16.28902 0,0 0.4573,-2.19339 -9.32233,0 -6.28792,30.04538 9.82382,0 2.0187,-9.61715 c 0.48928,-2.35845 1.13185,-5.31714 2.14261,-7.50912 0.63599,-1.3813 1.53577,-2.57051 2.76919,-3.47053 0.95057,-0.69877 2.06407,-1.24541 3.26669,-1.24541 0.6066,0 1.20779,0.0853 1.77724,0.29601 l 0.97596,0.35996 3.8225,-8.15309 -1.0733,-0.46412 c -1.23858,-0.53324 -2.5731,-0.90402 -3.93042,-0.90402 -2.54136,0 -4.67597,1.18945 -6.44004,2.85477 z m -31.75703,-1.27738 0,0 c 0.57744,-0.32117 1.17346,-0.6066 1.78523,-0.83725 1.38272,-0.51326 2.83737,-0.73991 4.30802,-0.73991 3.088,0 5.80382,1.00512 7.87989,3.32124 2.28132,2.53454 2.93189,6.01449 2.93189,9.32232 0,2.64811 -0.42791,5.2426 -1.30395,7.74117 -0.78787,2.26417 -1.91995,4.43992 -3.55988,6.2094 -1.34933,1.45325 -2.91191,2.72264 -4.71336,3.57728 -1.6719,0.79069 -3.43974,1.18804 -5.28915,1.18804 -3.41059,0 -6.1706,-1.18945 -8.20106,-3.54013 l -0.61483,2.88792 -9.13305,0 8.47449,-40.61852 9.85181,0 -2.41605,11.48914 z m -24.30387,-0.91601 0,0 9.81442,0 -6.27711,30.04538 -9.82382,0 6.28651,-30.04538 z m 2.19457,-10.57314 0,0 9.82523,0 -1.89197,9.06934 -9.81442,0 1.88116,-9.06934 z m -28.92154,31.94277 0,0 19.51175,0 -1.80263,8.67716 -29.72798,0 8.5013,-40.61852 10.18896,0 -6.67046,31.94277 z m 109.90701,-9.73448 0,0 c -0.0371,-1.20779 -0.2718,-2.5905 -1.08929,-3.49452 -0.76131,-0.84924 -1.74526,-1.16923 -2.87194,-1.16923 -1.33451,0 -2.42921,0.52666 -3.39059,1.43985 -0.90402,0.85723 -1.47324,2.02128 -1.83861,3.2239 l 9.19043,0 z m -62.13158,5.94653 0,0 c 0,1.40411 0.33222,2.73604 1.28938,3.79594 0.78129,0.86805 1.7027,1.37613 2.87992,1.37613 1.09729,0 2.04668,-0.43473 2.89733,-1.11209 1.17722,-0.93059 1.97074,-2.47718 2.49199,-3.85448 0.68795,-1.80663 1.0693,-3.68144 1.0693,-5.61597 0,-1.3893 -0.27461,-2.82256 -1.23341,-3.88269 -0.78129,-0.85723 -1.69989,-1.31712 -2.86653,-1.31712 -1.6933,0 -2.96269,0.88262 -3.97462,2.17999 -1.89715,2.43321 -2.55336,5.3919 -2.55336,8.43029 z m -92.20987,3.64406 0,0 10.57314,-1.00136 c 0.43755,1.25857 1.04532,2.16142 1.83084,2.69724 0.78529,0.54547 1.83061,0.8135 3.14255,0.8135 1.42786,0 2.53595,-0.30541 3.32265,-0.92 0.60777,-0.44672 0.91178,-1.01735 0.91178,-1.6973 0,-0.76812 -0.40393,-1.35732 -1.19721,-1.77747 -0.5812,-0.29319 -2.10804,-0.65997 -4.58122,-1.09729 -3.69719,-0.65197 -6.26912,-1.24117 -7.70779,-1.79581 -1.43608,-0.55205 -2.65069,-1.48263 -3.63323,-2.78541 -0.99078,-1.30395 -1.48264,-2.79599 -1.48264,-4.47448 0,-1.83084 0.53583,-3.4094 1.59996,-4.73193 1.0599,-1.33075 2.52514,-2.32129 4.39172,-2.97327 1.86681,-0.65338 4.36679,-0.98395 7.51052,-0.98395 3.31348,0 5.75868,0.26121 7.34007,0.75989 1.58115,0.50808 2.89309,1.29454 3.94782,2.35726 1.0519,1.06273 1.92935,2.49999 2.63329,4.3132 l -10.09985,0.99994 c -0.26662,-0.89179 -0.69594,-1.54377 -1.31053,-1.96392 -0.84148,-0.5638 -1.84942,-0.83865 -3.03863,-0.83865 -1.19603,0 -2.08007,0.21348 -2.6253,0.64139 -0.55323,0.42932 -0.82126,0.94799 -0.82126,1.55458 0,0.68795 0.34915,1.19603 1.04533,1.54401 0.69594,0.34797 2.21455,0.66279 4.55441,0.94798 3.53614,0.40134 6.17061,0.95457 7.8933,1.66791 1.73185,0.71616 3.05461,1.73327 3.96521,3.06402 0.92001,1.32276 1.37613,2.77859 1.37613,4.36656 0,1.60796 -0.48269,3.17053 -1.45606,4.68938 -0.96539,1.5172 -2.49199,2.72263 -4.57323,3.61584 -2.08806,0.90143 -4.92802,1.34791 -8.51729,1.34791 -5.07308,0 -8.69033,-0.72251 -10.84117,-2.17058 -2.15177,-1.44526 -3.53707,-3.50933 -4.15307,-6.16919 z m -13.8316,-8.66259 0,0 c -0.21325,-2.06126 -0.76929,-3.5359 -1.66132,-4.41993 -0.90143,-0.89321 -2.08124,-1.33852 -3.54531,-1.33852 -1.69588,0 -3.04403,0.67596 -4.06255,2.01729 -0.64398,0.83984 -1.05473,2.08124 -1.22401,3.74116 l 10.49319,0 z m 10.82377,5.09871 0,0 -21.34236,0 c 0.18669,1.71587 0.64939,2.98385 1.38272,3.82109 1.02675,1.20661 2.37607,1.80545 4.02658,1.80545 1.04532,0 2.04527,-0.26003 2.98385,-0.78528 0.58003,-0.33081 1.19603,-0.91201 1.85741,-1.74949 l 10.4932,0.96279 c -1.60937,2.79458 -3.5359,4.79447 -5.80523,6.01049 -2.26793,1.2052 -5.51863,1.81203 -9.75988,1.81203 -3.68002,0 -6.57311,-0.51749 -8.68915,-1.55481 -2.10805,-1.03451 -3.8573,-2.68643 -5.2426,-4.94518 -1.38389,-2.25993 -2.08007,-4.9118 -2.08007,-7.96642 0,-4.33999 1.39329,-7.85849 4.17071,-10.53598 2.78518,-2.68925 6.62532,-4.03858 11.52771,-4.03858 3.97462,0 7.11717,0.60942 9.4119,1.81345 2.3053,1.1972 4.06396,2.94787 5.26,5.22379 1.20661,2.28673 1.80521,5.26 1.80521,8.92121 l 0,1.20544 z m -55.38611,-16.52908 0,0 9.96654,0 0,4.54525 c 0.96538,-1.96533 1.95592,-3.32124 2.97326,-4.06256 1.01852,-0.74131 2.27733,-1.1175 3.77713,-1.1175 1.57198,0 3.28668,0.4921 5.15326,1.46547 l -3.29585,7.59188 c -1.2494,-0.52807 -2.24935,-0.7867 -2.98126,-0.7867 -1.39329,0 -2.47459,0.58003 -3.24271,1.72269 -1.09728,1.62653 -1.65192,4.66116 -1.65192,9.10907 l 0,9.31316 -10.69845,0 0,-27.78123 z m -17.557,0 0,0 10.65448,0 0,27.78123 -10.65448,0 0,-27.78123 z m 0,-10.57196 0,0 10.65448,0 0,7.25072 -10.65448,0 0,-7.25072 z m -20.24226,23.72549 0,0 -4.24265,-13.78904 -4.21468,13.78904 8.45733,0 z m 2.48259,8.29604 0,0 -13.50385,0 -1.85577,6.33048 -12.10914,0 14.41304,-38.35201 12.921,0 14.42244,38.35201 -12.40374,0 -1.88398,-6.33048 z m -58.92037,-1.35732 0,0 10.57314,-1.00135 c 0.43731,1.25857 1.04532,2.16118 1.8306,2.69724 0.78529,0.54523 1.83061,0.81326 3.14255,0.81326 1.4281,0 2.53596,-0.30518 3.32265,-0.92 0.60801,-0.44649 0.91061,-1.01735 0.91061,-1.6973 0,-0.76789 -0.40252,-1.35732 -1.1958,-1.77724 -0.58144,-0.29342 -2.10804,-0.65997 -4.58146,-1.09728 -3.69719,-0.65198 -6.26911,-1.24141 -7.70778,-1.79605 -1.43585,-0.55181 -2.65069,-1.48263 -3.63324,-2.78517 -0.99054,-1.30395 -1.48264,-2.79599 -1.48264,-4.47472 0,-1.83061 0.53607,-3.40917 1.59855,-4.73193 1.06131,-1.33052 2.52679,-2.32129 4.39337,-2.97327 1.86658,-0.65315 4.36656,-0.98395 7.51052,-0.98395 3.31325,0 5.75844,0.26144 7.33842,0.76012 1.5828,0.50785 2.89333,1.29455 3.94806,2.35727 1.05331,1.06249 1.92935,2.49998 2.63446,4.31319 l -10.09961,0.99995 c -0.26803,-0.89203 -0.69618,-1.54401 -1.31218,-1.96392 -0.83983,-0.56404 -1.84918,-0.83866 -3.03722,-0.83866 -1.19603,0 -2.07983,0.21325 -2.6253,0.6414 -0.55322,0.42932 -0.82125,0.94798 -0.82125,1.55458 0,0.68795 0.34938,1.19603 1.04532,1.544 0.69594,0.34797 2.21455,0.66255 4.55324,0.94798 3.5359,0.40135 6.17201,0.95457 7.89447,1.66791 1.73209,0.71593 3.05344,1.73327 3.96522,3.06403 0.92,1.32252 1.37613,2.77859 1.37613,4.36656 0,1.60795 -0.48269,3.17053 -1.45607,4.68914 -0.96538,1.51743 -2.49199,2.72263 -4.57323,3.61607 -2.08806,0.9012 -4.92778,1.34792 -8.51846,1.34792 -5.07191,0 -8.68916,-0.72275 -10.84117,-2.17059 -2.1506,-1.44525 -3.5359,-3.50933 -4.1519,-6.16919 z m -24.48491,-6.1532 0,0 c 0,2.48258 0.50009,4.31319 1.50921,5.49182 1.00018,1.18804 2.25875,1.78664 3.77736,1.78664 1.5346,0 2.79458,-0.58943 3.77736,-1.76007 0.99054,-1.16923 1.48264,-3.03581 1.48264,-5.62654 0,-2.40124 -0.5015,-4.19587 -1.49204,-5.37592 -0.99078,-1.16805 -2.22537,-1.75866 -3.68802,-1.75866 -1.55458,0 -2.83996,0.59884 -3.84931,1.78664 -1.00794,1.19744 -1.5172,3.01724 -1.5172,5.45585 z m -10.67188,0.0266 0,0 c 0,-4.23325 1.42809,-7.73318 4.28521,-10.4758 2.86794,-2.7492 6.72524,-4.12533 11.59189,-4.12533 5.56259,0 9.77045,1.61594 12.60923,4.84125 2.2865,2.59873 3.42916,5.80524 3.42916,9.60917 0,4.26664 -1.41986,7.76797 -4.25065,10.49978 -2.83055,2.72404 -6.75039,4.09053 -11.76094,4.09053 -4.46531,0 -8.07198,-1.13466 -10.83199,-3.40117 -3.38378,-2.8054 -5.07191,-6.48519 -5.07191,-11.03843 z m -34.43405,-13.96632 0,0 9.92116,0 0,4.51844 c 1.48264,-1.848 2.98408,-3.16112 4.49987,-3.95581 1.52002,-0.79469 3.36662,-1.19744 5.54661,-1.19744 2.9467,0 5.25059,0.88403 6.92132,2.6347 1.66133,1.75184 2.49199,4.4559 2.49199,8.11853 l 0,17.66233 -10.69986,0 0,-15.27967 c 0,-1.74009 -0.32141,-2.97209 -0.96398,-3.69601 -0.65197,-0.73192 -1.55199,-1.08929 -2.72404,-1.08929 -1.28514,0 -2.33846,0.49186 -3.13315,1.46382 -0.80409,0.97338 -1.20685,2.73204 -1.20685,5.26 l 0,13.34115 -10.65307,0 0,-27.78122 z m -15.71558,11.43036 0,0 c -0.21466,-2.06125 -0.76812,-3.5359 -1.66132,-4.41993 -0.90143,-0.8932 -2.08124,-1.33851 -3.5439,-1.33851 -1.69729,0 -3.04544,0.67596 -4.06396,2.01729 -0.64281,0.83983 -1.05332,2.08124 -1.2226,3.74115 l 10.49178,0 z m 10.82377,5.09848 0,0 -21.34236,0 c 0.1881,1.7161 0.6508,2.98408 1.38272,3.82133 1.02651,1.20661 2.37584,1.80521 4.02799,1.80521 1.04532,0 2.04527,-0.2598 2.98385,-0.78528 0.58003,-0.33057 1.19462,-0.91201 1.85718,-1.74926 l 10.49202,0.96256 c -1.60796,2.79482 -3.53614,4.79471 -5.80406,6.01072 -2.26933,1.20521 -5.5198,1.8118 -9.76105,1.8118 -3.67861,0 -6.57194,-0.51725 -8.68915,-1.55458 -2.10664,-1.03451 -3.8573,-2.68666 -5.24143,-4.94518 -1.3853,-2.25993 -2.08124,-4.91203 -2.08124,-7.96665 0,-4.33975 1.39329,-7.85849 4.17189,-10.53575 2.784,-2.68925 6.62531,-4.03857 11.52794,-4.03857 3.97321,0 7.11576,0.60941 9.41049,1.81344 2.30389,1.19721 4.06396,2.94788 5.25976,5.22379 1.20685,2.28673 1.80545,5.26 1.80545,8.92122 l 0,1.2052 z m -37.30198,11.25191 0,0 -9.94656,0 0,-4.49987 c -1.48263,1.84801 -2.97468,3.16912 -4.48247,3.94782 -1.51062,0.78411 -3.36803,1.17746 -5.56259,1.17746 -2.93072,0 -5.225206,-0.87604 -6.895935,-2.6253 -1.659914,-1.75067 -2.490577,-4.4559 -2.490577,-8.09996 l 0,-17.6809 10.698452,0 0,15.27826 c 0,1.74267 0.3214,2.98385 0.96397,3.716 0.65198,0.73332 1.55459,1.09869 2.72405,1.09869 1.27715,0 2.31306,-0.4921 3.12515,-1.46547 0.81209,-0.98114 1.21461,-2.73181 1.21461,-5.25977 l 0,-13.36795 10.6519,0 0,27.78123 z m -58.267009,-8.24126 0,0 6.045215,0 c 2.046629,0 3.483938,-0.35738 4.315917,-1.07988 0.837319,-0.72534 1.25735,-1.69871 1.25735,-2.92131 0,-1.13467 -0.410699,-2.04409 -1.24135,-2.73322 -0.829317,-0.68677 -2.277292,-1.03615 -4.358591,-1.03615 l -6.018552,0 0,7.77056 z m 0,-15.06501 0,0 5.153234,0 c 1.8493,0 3.134605,-0.32141 3.866589,-0.95598 0.723986,-0.64257 1.081314,-1.56258 1.081314,-2.75861 0,-1.11609 -0.357326,-1.9919 -1.081314,-2.61589 -0.731987,-0.63599 -1.990629,-0.94799 -3.785262,-0.94799 l -5.234561,0 0,7.27847 z m -11.956257,-15.04644 22.190253,0 c 3.697315,0 6.537273,0.91859 8.510596,2.7492 1.982492,1.83084 2.973268,4.09994 2.973268,6.79601 0,2.26933 -0.70417,4.21585 -2.116038,5.83979 -0.946574,1.08012 -2.321293,1.93876 -4.134502,2.56276 2.750614,0.66114 4.777073,1.8038 6.081022,3.41176 1.29478,1.61618 1.946755,3.64264 1.946755,6.08126 0,1.99213 -0.463883,3.77736 -1.383889,5.36791 -0.929411,1.58938 -2.187983,2.83878 -3.794761,3.76796 -0.991951,0.57063 -2.491987,0.99078 -4.501283,1.25058 -2.670536,0.3482 -4.437169,0.52548 -5.313138,0.52548 l -20.4583,0 0,-38.35201 z"
         id="path3009" />
      <path
         style="fill:#000000;fill-rule:evenodd"
         inkscape:connector-curvature="0"
         class="fil0"
         d="m 205.95118,210.1172 0,0 0,-10.52259 10.5146,0 0,10.52259 -10.5146,0 z m 268.33476,76.51851 0,0 c 0,-94.66236 -76.76539,-171.42751 -171.42751,-171.42751 -94.66495,0 -171.43292,76.76538 -171.43292,171.42751 0,94.65954 76.77055,171.42633 171.43292,171.42633 94.65742,0 171.42727,-76.7675 171.42727,-171.42633 z m -117.03335,-147.77209 0,0 c 21.35693,7.91046 40.7925,20.41953 56.91436,36.55408 29.57751,29.5942 46.179,69.35737 46.179,111.21801 0,86.73709 -70.75795,157.48776 -157.48729,157.48776 -19.63824,0 -39.06464,-3.65181 -57.33898,-10.83435 l -3.07625,-74.00395 c 31.06602,-6.0333 59.56835,-21.30498 81.95979,-43.69524 28.67678,-28.6876 45.29379,-66.9016 46.51121,-107.39151 l 0.0854,0 0,-9.61198 -0.0854,0 c -0.62,-20.6436 -5.24377,-40.89267 -13.66114,-59.72282 z m -196.95116,214.59069 0,0 c 6.50776,2.25452 13.16105,4.09053 19.91568,5.47865 l -1.08812,24.93398 c -7.40237,-9.3905 -13.72626,-19.60368 -18.82756,-30.41216 z m 178.8541,-220.06793 0,0 c 11.63585,20.99156 17.82503,44.42174 18.08107,68.43618 l 0,3.15337 c -0.40604,38.01274 -15.68971,74.00936 -42.56645,100.8861 -19.94507,19.95165 -45.22043,33.73528 -72.80534,39.51254 l -0.59202,-14.31453 c 24.0262,-5.47983 46.00854,-17.70771 63.44281,-35.15279 23.45158,-23.44617 37.11789,-54.63093 38.32591,-87.70906 l 0.0933,0 0,-9.61058 -0.0933,0 c -0.89343,-24.53146 -8.64519,-48.15655 -22.39685,-68.43727 6.23315,0.70666 12.41574,1.7933 18.51157,3.23594 z m -190.69521,184.31794 0,0 c 10.34648,5.79465 21.45027,10.16638 32.98197,12.9652 l -0.6254,14.33686 c -9.45446,-2.10123 -18.69285,-5.15843 -27.53154,-9.11966 -1.97332,-5.95453 -3.58527,-12.03179 -4.82527,-18.1824 z m 154.27843,-188.5606 0,0 c 16.9316,20.60104 26.32116,46.13527 26.63857,72.83331 l 0,2.84537 c -0.3609,30.65269 -12.70752,59.67767 -34.38444,81.35719 -15.00247,14.99824 -33.7595,25.71409 -54.30294,30.88474 l -0.612,-14.64792 c 16.93441,-4.77989 32.36879,-13.87838 44.81909,-26.3315 18.17159,-18.177 28.87145,-42.27256 30.06208,-67.88672 l 0.11732,0 0,-9.61034 -0.11732,0 c -1.19063,-25.61558 -11.89049,-49.71655 -30.06208,-67.88821 -0.16129,-0.16266 -0.31741,-0.31999 -0.47588,-0.47199 6.07585,-0.72265 12.19567,-1.07865 18.31831,-1.08398 z m -157.28908,152.43725 0,0 c 10.85715,9.28517 23.54092,16.24364 37.24743,20.36239 l -0.64257,14.69024 c -12.89983,-3.44914 -25.1223,-9.11048 -36.12734,-16.69554 -0.37736,-4.42134 -0.56146,-8.85985 -0.56146,-13.30259 0,-1.68389 0.028,-3.3692 0.0839,-5.0545 z m 121.64302,-148.31474 0,0 c 2.83055,2.22396 5.53061,4.61593 8.07056,7.15715 16.45032,16.45313 25.83965,38.46322 26.15823,61.7361 l 0,2.48141 c -0.31882,23.2569 -9.70392,45.26323 -26.15682,61.71495 -10.00509,10.00651 -22.23297,17.53302 -35.67663,21.8756 l -0.50409,-12.12913 c 10.50378,-3.88411 20.0544,-10.02649 27.98225,-17.95317 13.40111,-13.39969 21.41031,-31.09141 22.57954,-49.95119 l 0.1547,0 0,-9.61034 -0.1547,0 c -1.16923,-18.86494 -9.17843,-36.55526 -22.58353,-49.95777 -4.29321,-4.29603 -9.08392,-8.08115 -14.24893,-11.26517 4.72111,-1.59597 9.5224,-2.95862 14.37965,-4.0986 z m -120.09926,130.76432 0,0 c 0.71734,-4.9386 1.66932,-9.84122 2.85336,-14.69306 2.30931,3.12256 4.85043,6.07044 7.59305,8.81706 7.52393,7.52134 16.51709,13.4413 26.40345,17.34916 l -0.52783,12.19449 c -12.81449,-4.41876 -24.48232,-11.74119 -34.08208,-21.34236 -0.76131,-0.7613 -1.50944,-1.53342 -2.23995,-2.32529 z m 88.81975,-119.83922 0,0 c 8.0172,3.22249 15.31447,8.05858 21.4183,14.16641 11.73037,11.73037 18.44903,27.3994 18.71306,43.99642 l 0,2.09323 c -0.26403,16.57587 -6.97987,32.25006 -18.71165,43.97785 -5.44809,5.44927 -11.84511,9.88919 -18.85437,13.07053 l -0.63598,-15.30507 c 3.52649,-2.11321 6.78777,-4.65598 9.69168,-7.56648 8.20788,-8.20787 13.27861,-18.92631 14.38906,-30.42603 l 0.23888,0 0,-9.61058 -0.23888,0 c -1.11045,-11.50113 -6.18118,-22.22357 -14.39164,-30.43285 -7.89847,-7.89988 -18.13703,-12.89702 -29.14889,-14.24917 5.62513,-3.60126 11.48373,-6.85314 17.53043,-9.71449 z m -72.4094,69.42015 0,0 c 1.97473,9.43447 6.66246,18.11705 13.56239,25.01415 2.4894,2.49458 5.24001,4.71454 8.19729,6.6279 l -0.67736,15.51691 c -6.41183,-3.11575 -12.27185,-7.29845 -17.31578,-12.34355 -4.83843,-4.83209 -8.88124,-10.42267 -11.95702,-16.5225 2.33728,-6.26512 5.07732,-12.37976 8.19048,-18.29291 z m 32.59544,-42.46323 0,0 c -6.26653,5.79582 -12.06118,12.09832 -17.31036,18.82497 -1.62653,4.02917 -2.50257,8.29863 -2.5905,12.61982 l 0,1.57456 c 0.18386,8.95719 3.69178,17.4157 9.81042,23.91546 l 0.9066,-20.77949 22.69028,-39.92187 c -4.70795,0.35055 -9.28259,1.62112 -13.50644,3.76655 z m 17.38513,-3.84673 0,0 22.73683,40.00605 0.92659,22.23039 c 0.22265,-0.21208 0.44014,-0.42392 0.66138,-0.63999 6.60509,-6.6105 10.41443,-15.4238 10.5997,-24.75294 l 0,-1.48263 c -0.18527,-9.35054 -3.99461,-18.16642 -10.5997,-24.77434 -6.51199,-6.50917 -15.15577,-10.29993 -24.3248,-10.58654 z"
         id="path3011" />
    </g>
  </g>
</svg>
